<mxfile host="app.diagrams.net" agent="Mozilla/5.0 (Macintosh; Intel Mac OS X 10_15_7) AppleWebKit/605.1.15 (KHTML, like Gecko) Version/18.0.1 Safari/605.1.15" version="24.8.0">
  <diagram name="ページ1" id="2ieiKxWpA-IM2_4qRuWL">
    <mxGraphModel dx="454" dy="285" grid="1" gridSize="10" guides="1" tooltips="1" connect="1" arrows="1" fold="1" page="1" pageScale="1" pageWidth="827" pageHeight="1169" math="0" shadow="0">
      <root>
        <mxCell id="0" />
        <mxCell id="1" parent="0" />
        <mxCell id="wSJwr0WmTidx09gtj-vm-22" value="" style="rounded=1;whiteSpace=wrap;html=1;fillColor=none;" parent="1" vertex="1">
          <mxGeometry y="80" width="310" height="80" as="geometry" />
        </mxCell>
        <mxCell id="wSJwr0WmTidx09gtj-vm-34" value="&lt;span style=&quot;font-family: Menlo, Monaco, &amp;quot;Courier New&amp;quot;, monospace; text-align: start; white-space: pre;&quot;&gt;n_&lt;/span&gt;op = 1" style="text;html=1;align=center;verticalAlign=middle;whiteSpace=wrap;rounded=0;" parent="1" vertex="1">
          <mxGeometry x="125" y="80" width="60" height="20" as="geometry" />
        </mxCell>
        <mxCell id="wSJwr0WmTidx09gtj-vm-75" value="" style="rounded=1;whiteSpace=wrap;html=1;fillColor=none;" parent="1" vertex="1">
          <mxGeometry y="190" width="310" height="110" as="geometry" />
        </mxCell>
        <mxCell id="wSJwr0WmTidx09gtj-vm-76" value="&lt;span style=&quot;font-family: Menlo, Monaco, &amp;quot;Courier New&amp;quot;, monospace; text-align: start; white-space: pre;&quot;&gt;n_&lt;/span&gt;op = 2" style="text;html=1;align=center;verticalAlign=middle;whiteSpace=wrap;rounded=0;" parent="1" vertex="1">
          <mxGeometry x="125" y="190" width="60" height="20" as="geometry" />
        </mxCell>
        <mxCell id="wSJwr0WmTidx09gtj-vm-99" value="" style="rounded=1;whiteSpace=wrap;html=1;fillColor=none;" parent="1" vertex="1">
          <mxGeometry y="330" width="310" height="140" as="geometry" />
        </mxCell>
        <mxCell id="wSJwr0WmTidx09gtj-vm-100" value="&lt;span style=&quot;font-family: Menlo, Monaco, &amp;quot;Courier New&amp;quot;, monospace; text-align: start; white-space: pre;&quot;&gt;n_&lt;/span&gt;op = 3" style="text;html=1;align=center;verticalAlign=middle;whiteSpace=wrap;rounded=0;" parent="1" vertex="1">
          <mxGeometry x="125" y="330" width="60" height="20" as="geometry" />
        </mxCell>
        <mxCell id="wSJwr0WmTidx09gtj-vm-140" value="" style="rounded=1;whiteSpace=wrap;html=1;fillColor=none;" parent="1" vertex="1">
          <mxGeometry width="310" height="50" as="geometry" />
        </mxCell>
        <mxCell id="wSJwr0WmTidx09gtj-vm-141" value="&lt;span style=&quot;font-family: Menlo, Monaco, &amp;quot;Courier New&amp;quot;, monospace; text-align: start; white-space: pre;&quot;&gt;n_&lt;/span&gt;op = 0" style="text;html=1;align=center;verticalAlign=middle;whiteSpace=wrap;rounded=0;" parent="1" vertex="1">
          <mxGeometry x="125" width="60" height="20" as="geometry" />
        </mxCell>
        <mxCell id="wSJwr0WmTidx09gtj-vm-156" value="eq(n_op=0)" style="rounded=1;whiteSpace=wrap;html=1;fillColor=none;" parent="1" vertex="1">
          <mxGeometry x="230" y="20" width="70" height="20" as="geometry" />
        </mxCell>
        <mxCell id="wSJwr0WmTidx09gtj-vm-157" value="save data" style="rounded=0;whiteSpace=wrap;html=1;labelBackgroundColor=none;fillColor=none;" parent="1" vertex="1">
          <mxGeometry x="330" y="20" width="80" height="440" as="geometry" />
        </mxCell>
        <mxCell id="wSJwr0WmTidx09gtj-vm-172" style="edgeStyle=orthogonalEdgeStyle;rounded=0;orthogonalLoop=1;jettySize=auto;html=1;" parent="1" source="wSJwr0WmTidx09gtj-vm-166" target="wSJwr0WmTidx09gtj-vm-156" edge="1">
          <mxGeometry relative="1" as="geometry" />
        </mxCell>
        <mxCell id="wSJwr0WmTidx09gtj-vm-166" value="base data" style="rounded=1;whiteSpace=wrap;html=1;fillColor=none;" parent="1" vertex="1">
          <mxGeometry x="10" y="20" width="70" height="20" as="geometry" />
        </mxCell>
        <mxCell id="wSJwr0WmTidx09gtj-vm-191" value="" style="endArrow=none;dashed=1;html=1;dashPattern=1 3;strokeWidth=2;rounded=0;" parent="1" edge="1">
          <mxGeometry width="50" height="50" relative="1" as="geometry">
            <mxPoint x="154.76" y="540" as="sourcePoint" />
            <mxPoint x="154.76" y="480" as="targetPoint" />
          </mxGeometry>
        </mxCell>
        <mxCell id="wSJwr0WmTidx09gtj-vm-193" value="" style="endArrow=classic;html=1;rounded=0;" parent="1" edge="1">
          <mxGeometry width="50" height="50" relative="1" as="geometry">
            <mxPoint x="469.9" y="320" as="sourcePoint" />
            <mxPoint x="469.9" y="340" as="targetPoint" />
          </mxGeometry>
        </mxCell>
        <mxCell id="wSJwr0WmTidx09gtj-vm-195" value="score1,&lt;div&gt;score2&lt;/div&gt;" style="rounded=1;whiteSpace=wrap;html=1;fillColor=none;" parent="1" vertex="1">
          <mxGeometry x="445" y="280" width="50" height="40" as="geometry" />
        </mxCell>
        <mxCell id="wSJwr0WmTidx09gtj-vm-196" value="" style="endArrow=classic;html=1;rounded=0;" parent="1" edge="1">
          <mxGeometry width="50" height="50" relative="1" as="geometry">
            <mxPoint x="470" y="260" as="sourcePoint" />
            <mxPoint x="469.96" y="280" as="targetPoint" />
          </mxGeometry>
        </mxCell>
        <mxCell id="wSJwr0WmTidx09gtj-vm-198" value="scores" style="rounded=0;whiteSpace=wrap;html=1;fillColor=none;" parent="1" vertex="1">
          <mxGeometry x="430" y="340" width="80" height="60" as="geometry" />
        </mxCell>
        <mxCell id="7WNieYxZ6oEbrntdn1WC-2" value="" style="endArrow=classic;html=1;rounded=0;entryX=0;entryY=0.064;entryDx=0;entryDy=0;entryPerimeter=0;exitX=1;exitY=0.5;exitDx=0;exitDy=0;" parent="1" edge="1" source="wSJwr0WmTidx09gtj-vm-156">
          <mxGeometry width="50" height="50" relative="1" as="geometry">
            <mxPoint x="290" y="29.829999999999984" as="sourcePoint" />
            <mxPoint x="320" y="29.829999999999984" as="targetPoint" />
          </mxGeometry>
        </mxCell>
        <mxCell id="7WNieYxZ6oEbrntdn1WC-4" value="ans" style="rounded=0;whiteSpace=wrap;html=1;fillColor=none;" parent="1" vertex="1">
          <mxGeometry x="430" y="460" width="80" height="60" as="geometry" />
        </mxCell>
        <mxCell id="xI8S6_EQLViQU4URrduS-2" value="" style="endArrow=classic;html=1;rounded=0;exitX=0;exitY=0.091;exitDx=0;exitDy=0;exitPerimeter=0;" edge="1" parent="1" source="wSJwr0WmTidx09gtj-vm-157">
          <mxGeometry width="50" height="50" relative="1" as="geometry">
            <mxPoint x="280" y="60" as="sourcePoint" />
            <mxPoint x="40" y="80" as="targetPoint" />
            <Array as="points">
              <mxPoint x="40" y="60" />
            </Array>
          </mxGeometry>
        </mxCell>
        <mxCell id="xI8S6_EQLViQU4URrduS-3" value="" style="endArrow=classic;html=1;rounded=0;" edge="1" parent="1">
          <mxGeometry width="50" height="50" relative="1" as="geometry">
            <mxPoint x="330" y="170" as="sourcePoint" />
            <mxPoint x="40" y="190" as="targetPoint" />
            <Array as="points">
              <mxPoint x="40" y="170" />
            </Array>
          </mxGeometry>
        </mxCell>
        <mxCell id="xI8S6_EQLViQU4URrduS-5" value="" style="endArrow=classic;html=1;rounded=0;" edge="1" parent="1">
          <mxGeometry width="50" height="50" relative="1" as="geometry">
            <mxPoint x="330" y="310" as="sourcePoint" />
            <mxPoint x="40" y="330" as="targetPoint" />
            <Array as="points">
              <mxPoint x="40" y="310" />
            </Array>
          </mxGeometry>
        </mxCell>
        <mxCell id="xI8S6_EQLViQU4URrduS-6" value="model_score" style="rounded=1;whiteSpace=wrap;html=1;fillColor=none;" vertex="1" parent="1">
          <mxGeometry x="430" y="220" width="80" height="40" as="geometry" />
        </mxCell>
        <mxCell id="xI8S6_EQLViQU4URrduS-8" value="" style="endArrow=classic;html=1;rounded=0;entryX=0;entryY=0.5;entryDx=0;entryDy=0;" edge="1" parent="1">
          <mxGeometry width="50" height="50" relative="1" as="geometry">
            <mxPoint x="410" y="240" as="sourcePoint" />
            <mxPoint x="430" y="240" as="targetPoint" />
          </mxGeometry>
        </mxCell>
        <mxCell id="xI8S6_EQLViQU4URrduS-32" value="" style="endArrow=classic;html=1;rounded=0;" edge="1" parent="1">
          <mxGeometry width="50" height="50" relative="1" as="geometry">
            <mxPoint x="469.91999999999996" y="440" as="sourcePoint" />
            <mxPoint x="469.91999999999996" y="460" as="targetPoint" />
          </mxGeometry>
        </mxCell>
        <mxCell id="xI8S6_EQLViQU4URrduS-33" value="" style="endArrow=none;html=1;rounded=0;endFill=0;" edge="1" parent="1">
          <mxGeometry width="50" height="50" relative="1" as="geometry">
            <mxPoint x="469.91999999999996" y="400" as="sourcePoint" />
            <mxPoint x="470" y="420" as="targetPoint" />
          </mxGeometry>
        </mxCell>
        <mxCell id="xI8S6_EQLViQU4URrduS-36" value="sort" style="rounded=0;whiteSpace=wrap;html=1;fillColor=none;strokeColor=none;" vertex="1" parent="1">
          <mxGeometry x="455" y="420" width="30" height="20" as="geometry" />
        </mxCell>
        <mxCell id="xI8S6_EQLViQU4URrduS-39" value="" style="group" vertex="1" connectable="0" parent="1">
          <mxGeometry x="10" y="100" width="320" height="20" as="geometry" />
        </mxCell>
        <mxCell id="wSJwr0WmTidx09gtj-vm-180" value="" style="endArrow=classic;html=1;rounded=0;entryX=0;entryY=0.064;entryDx=0;entryDy=0;entryPerimeter=0;" parent="xI8S6_EQLViQU4URrduS-39" edge="1">
          <mxGeometry width="50" height="50" relative="1" as="geometry">
            <mxPoint x="290" y="9.900000000000006" as="sourcePoint" />
            <mxPoint x="320" y="9.899999999999977" as="targetPoint" />
          </mxGeometry>
        </mxCell>
        <mxCell id="xI8S6_EQLViQU4URrduS-28" value="" style="endArrow=none;html=1;rounded=0;" edge="1" parent="xI8S6_EQLViQU4URrduS-39">
          <mxGeometry width="50" height="50" relative="1" as="geometry">
            <mxPoint x="80" y="9.900000000000006" as="sourcePoint" />
            <mxPoint x="69.99871794871794" y="9.900000000000006" as="targetPoint" />
          </mxGeometry>
        </mxCell>
        <mxCell id="wSJwr0WmTidx09gtj-vm-1" value="eq(n_op=0)" style="rounded=1;whiteSpace=wrap;html=1;fillColor=none;" parent="xI8S6_EQLViQU4URrduS-39" vertex="1">
          <mxGeometry width="70" height="20" as="geometry" />
        </mxCell>
        <mxCell id="wSJwr0WmTidx09gtj-vm-5" style="edgeStyle=orthogonalEdgeStyle;rounded=0;orthogonalLoop=1;jettySize=auto;html=1;exitX=1;exitY=0.5;exitDx=0;exitDy=0;entryX=0;entryY=0.5;entryDx=0;entryDy=0;endArrow=none;endFill=0;" parent="xI8S6_EQLViQU4URrduS-39" source="wSJwr0WmTidx09gtj-vm-2" target="wSJwr0WmTidx09gtj-vm-3" edge="1">
          <mxGeometry relative="1" as="geometry" />
        </mxCell>
        <mxCell id="wSJwr0WmTidx09gtj-vm-2" value="+,-,*,/" style="rounded=1;whiteSpace=wrap;html=1;fillColor=none;" parent="xI8S6_EQLViQU4URrduS-39" vertex="1">
          <mxGeometry x="80" width="40" height="20" as="geometry" />
        </mxCell>
        <mxCell id="wSJwr0WmTidx09gtj-vm-7" style="edgeStyle=orthogonalEdgeStyle;rounded=0;orthogonalLoop=1;jettySize=auto;html=1;exitX=1;exitY=0.5;exitDx=0;exitDy=0;entryX=0;entryY=0.5;entryDx=0;entryDy=0;" parent="xI8S6_EQLViQU4URrduS-39" source="wSJwr0WmTidx09gtj-vm-3" target="wSJwr0WmTidx09gtj-vm-6" edge="1">
          <mxGeometry relative="1" as="geometry" />
        </mxCell>
        <mxCell id="wSJwr0WmTidx09gtj-vm-3" value="eq(n_op=0)" style="rounded=1;whiteSpace=wrap;html=1;fillColor=none;" parent="xI8S6_EQLViQU4URrduS-39" vertex="1">
          <mxGeometry x="130" width="70" height="20" as="geometry" />
        </mxCell>
        <mxCell id="wSJwr0WmTidx09gtj-vm-6" value="eq(n_op=1)" style="rounded=1;whiteSpace=wrap;html=1;fillColor=none;" parent="xI8S6_EQLViQU4URrduS-39" vertex="1">
          <mxGeometry x="220" width="70" height="20" as="geometry" />
        </mxCell>
        <mxCell id="xI8S6_EQLViQU4URrduS-44" value="" style="group" vertex="1" connectable="0" parent="1">
          <mxGeometry x="10" y="130" width="320" height="20" as="geometry" />
        </mxCell>
        <mxCell id="wSJwr0WmTidx09gtj-vm-181" value="" style="endArrow=classic;html=1;rounded=0;entryX=0;entryY=0.064;entryDx=0;entryDy=0;entryPerimeter=0;" parent="xI8S6_EQLViQU4URrduS-44" edge="1">
          <mxGeometry width="50" height="50" relative="1" as="geometry">
            <mxPoint x="290" y="10" as="sourcePoint" />
            <mxPoint x="320" y="9.859999999999985" as="targetPoint" />
          </mxGeometry>
        </mxCell>
        <mxCell id="xI8S6_EQLViQU4URrduS-30" value="" style="endArrow=none;html=1;rounded=0;" edge="1" parent="xI8S6_EQLViQU4URrduS-44">
          <mxGeometry width="50" height="50" relative="1" as="geometry">
            <mxPoint x="80" y="9.890000000000015" as="sourcePoint" />
            <mxPoint x="69.99871794871794" y="9.890000000000015" as="targetPoint" />
          </mxGeometry>
        </mxCell>
        <mxCell id="wSJwr0WmTidx09gtj-vm-28" value="abs,exp,sin..." style="rounded=1;whiteSpace=wrap;html=1;fillColor=none;" parent="xI8S6_EQLViQU4URrduS-44" vertex="1">
          <mxGeometry x="80" width="120" height="20" as="geometry" />
        </mxCell>
        <mxCell id="wSJwr0WmTidx09gtj-vm-29" style="edgeStyle=orthogonalEdgeStyle;rounded=0;orthogonalLoop=1;jettySize=auto;html=1;exitX=1;exitY=0.5;exitDx=0;exitDy=0;entryX=0;entryY=0.5;entryDx=0;entryDy=0;" parent="xI8S6_EQLViQU4URrduS-44" edge="1">
          <mxGeometry relative="1" as="geometry">
            <mxPoint x="200" y="9.900000000000006" as="sourcePoint" />
            <mxPoint x="220" y="9.900000000000063" as="targetPoint" />
          </mxGeometry>
        </mxCell>
        <mxCell id="xI8S6_EQLViQU4URrduS-40" value="eq(n_op=1)" style="rounded=1;whiteSpace=wrap;html=1;fillColor=none;" vertex="1" parent="xI8S6_EQLViQU4URrduS-44">
          <mxGeometry x="220" width="70" height="20" as="geometry" />
        </mxCell>
        <mxCell id="xI8S6_EQLViQU4URrduS-41" value="eq(n_op=1)" style="rounded=1;whiteSpace=wrap;html=1;fillColor=none;" vertex="1" parent="xI8S6_EQLViQU4URrduS-44">
          <mxGeometry width="70" height="20" as="geometry" />
        </mxCell>
        <mxCell id="xI8S6_EQLViQU4URrduS-55" value="" style="group" vertex="1" connectable="0" parent="1">
          <mxGeometry x="10" y="210" width="320" height="20" as="geometry" />
        </mxCell>
        <mxCell id="xI8S6_EQLViQU4URrduS-56" value="" style="endArrow=classic;html=1;rounded=0;entryX=0;entryY=0.064;entryDx=0;entryDy=0;entryPerimeter=0;" edge="1" parent="xI8S6_EQLViQU4URrduS-55">
          <mxGeometry width="50" height="50" relative="1" as="geometry">
            <mxPoint x="290" y="9.900000000000006" as="sourcePoint" />
            <mxPoint x="320" y="9.899999999999977" as="targetPoint" />
          </mxGeometry>
        </mxCell>
        <mxCell id="xI8S6_EQLViQU4URrduS-57" value="" style="endArrow=none;html=1;rounded=0;" edge="1" parent="xI8S6_EQLViQU4URrduS-55">
          <mxGeometry width="50" height="50" relative="1" as="geometry">
            <mxPoint x="80" y="9.900000000000006" as="sourcePoint" />
            <mxPoint x="69.99871794871794" y="9.900000000000006" as="targetPoint" />
          </mxGeometry>
        </mxCell>
        <mxCell id="xI8S6_EQLViQU4URrduS-58" value="eq(n_op=0)" style="rounded=1;whiteSpace=wrap;html=1;fillColor=none;" vertex="1" parent="xI8S6_EQLViQU4URrduS-55">
          <mxGeometry width="70" height="20" as="geometry" />
        </mxCell>
        <mxCell id="xI8S6_EQLViQU4URrduS-59" style="edgeStyle=orthogonalEdgeStyle;rounded=0;orthogonalLoop=1;jettySize=auto;html=1;exitX=1;exitY=0.5;exitDx=0;exitDy=0;entryX=0;entryY=0.5;entryDx=0;entryDy=0;endArrow=none;endFill=0;" edge="1" parent="xI8S6_EQLViQU4URrduS-55" source="xI8S6_EQLViQU4URrduS-60" target="xI8S6_EQLViQU4URrduS-62">
          <mxGeometry relative="1" as="geometry" />
        </mxCell>
        <mxCell id="xI8S6_EQLViQU4URrduS-60" value="+,-,*,/" style="rounded=1;whiteSpace=wrap;html=1;fillColor=none;" vertex="1" parent="xI8S6_EQLViQU4URrduS-55">
          <mxGeometry x="80" width="40" height="20" as="geometry" />
        </mxCell>
        <mxCell id="xI8S6_EQLViQU4URrduS-61" style="edgeStyle=orthogonalEdgeStyle;rounded=0;orthogonalLoop=1;jettySize=auto;html=1;exitX=1;exitY=0.5;exitDx=0;exitDy=0;entryX=0;entryY=0.5;entryDx=0;entryDy=0;" edge="1" parent="xI8S6_EQLViQU4URrduS-55" source="xI8S6_EQLViQU4URrduS-62" target="xI8S6_EQLViQU4URrduS-63">
          <mxGeometry relative="1" as="geometry" />
        </mxCell>
        <mxCell id="xI8S6_EQLViQU4URrduS-62" value="eq(n_op=0)" style="rounded=1;whiteSpace=wrap;html=1;fillColor=none;" vertex="1" parent="xI8S6_EQLViQU4URrduS-55">
          <mxGeometry x="130" width="70" height="20" as="geometry" />
        </mxCell>
        <mxCell id="xI8S6_EQLViQU4URrduS-63" value="eq(n_op=1)" style="rounded=1;whiteSpace=wrap;html=1;fillColor=none;" vertex="1" parent="xI8S6_EQLViQU4URrduS-55">
          <mxGeometry x="220" width="70" height="20" as="geometry" />
        </mxCell>
        <mxCell id="xI8S6_EQLViQU4URrduS-64" value="" style="group" vertex="1" connectable="0" parent="1">
          <mxGeometry x="10" y="240" width="320" height="20" as="geometry" />
        </mxCell>
        <mxCell id="xI8S6_EQLViQU4URrduS-65" value="" style="endArrow=classic;html=1;rounded=0;entryX=0;entryY=0.064;entryDx=0;entryDy=0;entryPerimeter=0;" edge="1" parent="xI8S6_EQLViQU4URrduS-64">
          <mxGeometry width="50" height="50" relative="1" as="geometry">
            <mxPoint x="290" y="9.900000000000006" as="sourcePoint" />
            <mxPoint x="320" y="9.899999999999977" as="targetPoint" />
          </mxGeometry>
        </mxCell>
        <mxCell id="xI8S6_EQLViQU4URrduS-66" value="" style="endArrow=none;html=1;rounded=0;" edge="1" parent="xI8S6_EQLViQU4URrduS-64">
          <mxGeometry width="50" height="50" relative="1" as="geometry">
            <mxPoint x="80" y="9.900000000000006" as="sourcePoint" />
            <mxPoint x="69.99871794871794" y="9.900000000000006" as="targetPoint" />
          </mxGeometry>
        </mxCell>
        <mxCell id="xI8S6_EQLViQU4URrduS-67" value="eq(n_op=0)" style="rounded=1;whiteSpace=wrap;html=1;fillColor=none;" vertex="1" parent="xI8S6_EQLViQU4URrduS-64">
          <mxGeometry width="70" height="20" as="geometry" />
        </mxCell>
        <mxCell id="xI8S6_EQLViQU4URrduS-68" style="edgeStyle=orthogonalEdgeStyle;rounded=0;orthogonalLoop=1;jettySize=auto;html=1;exitX=1;exitY=0.5;exitDx=0;exitDy=0;entryX=0;entryY=0.5;entryDx=0;entryDy=0;endArrow=none;endFill=0;" edge="1" parent="xI8S6_EQLViQU4URrduS-64" source="xI8S6_EQLViQU4URrduS-69" target="xI8S6_EQLViQU4URrduS-71">
          <mxGeometry relative="1" as="geometry" />
        </mxCell>
        <mxCell id="xI8S6_EQLViQU4URrduS-69" value="+,-,*,/" style="rounded=1;whiteSpace=wrap;html=1;fillColor=none;" vertex="1" parent="xI8S6_EQLViQU4URrduS-64">
          <mxGeometry x="80" width="40" height="20" as="geometry" />
        </mxCell>
        <mxCell id="xI8S6_EQLViQU4URrduS-70" style="edgeStyle=orthogonalEdgeStyle;rounded=0;orthogonalLoop=1;jettySize=auto;html=1;exitX=1;exitY=0.5;exitDx=0;exitDy=0;entryX=0;entryY=0.5;entryDx=0;entryDy=0;" edge="1" parent="xI8S6_EQLViQU4URrduS-64" source="xI8S6_EQLViQU4URrduS-71" target="xI8S6_EQLViQU4URrduS-72">
          <mxGeometry relative="1" as="geometry" />
        </mxCell>
        <mxCell id="xI8S6_EQLViQU4URrduS-71" value="eq(n_op=0)" style="rounded=1;whiteSpace=wrap;html=1;fillColor=none;" vertex="1" parent="xI8S6_EQLViQU4URrduS-64">
          <mxGeometry x="130" width="70" height="20" as="geometry" />
        </mxCell>
        <mxCell id="xI8S6_EQLViQU4URrduS-72" value="eq(n_op=1)" style="rounded=1;whiteSpace=wrap;html=1;fillColor=none;" vertex="1" parent="xI8S6_EQLViQU4URrduS-64">
          <mxGeometry x="220" width="70" height="20" as="geometry" />
        </mxCell>
        <mxCell id="xI8S6_EQLViQU4URrduS-73" value="" style="group" vertex="1" connectable="0" parent="1">
          <mxGeometry x="10" y="270" width="320" height="20" as="geometry" />
        </mxCell>
        <mxCell id="xI8S6_EQLViQU4URrduS-74" value="" style="endArrow=classic;html=1;rounded=0;entryX=0;entryY=0.064;entryDx=0;entryDy=0;entryPerimeter=0;" edge="1" parent="xI8S6_EQLViQU4URrduS-73">
          <mxGeometry width="50" height="50" relative="1" as="geometry">
            <mxPoint x="290" y="10" as="sourcePoint" />
            <mxPoint x="320" y="9.859999999999985" as="targetPoint" />
          </mxGeometry>
        </mxCell>
        <mxCell id="xI8S6_EQLViQU4URrduS-75" value="" style="endArrow=none;html=1;rounded=0;" edge="1" parent="xI8S6_EQLViQU4URrduS-73">
          <mxGeometry width="50" height="50" relative="1" as="geometry">
            <mxPoint x="80" y="9.890000000000015" as="sourcePoint" />
            <mxPoint x="69.99871794871794" y="9.890000000000015" as="targetPoint" />
          </mxGeometry>
        </mxCell>
        <mxCell id="xI8S6_EQLViQU4URrduS-76" value="abs,exp,sin..." style="rounded=1;whiteSpace=wrap;html=1;fillColor=none;" vertex="1" parent="xI8S6_EQLViQU4URrduS-73">
          <mxGeometry x="80" width="120" height="20" as="geometry" />
        </mxCell>
        <mxCell id="xI8S6_EQLViQU4URrduS-77" style="edgeStyle=orthogonalEdgeStyle;rounded=0;orthogonalLoop=1;jettySize=auto;html=1;exitX=1;exitY=0.5;exitDx=0;exitDy=0;entryX=0;entryY=0.5;entryDx=0;entryDy=0;" edge="1" parent="xI8S6_EQLViQU4URrduS-73">
          <mxGeometry relative="1" as="geometry">
            <mxPoint x="200" y="9.900000000000006" as="sourcePoint" />
            <mxPoint x="220" y="9.900000000000063" as="targetPoint" />
          </mxGeometry>
        </mxCell>
        <mxCell id="xI8S6_EQLViQU4URrduS-78" value="eq(n_op=1)" style="rounded=1;whiteSpace=wrap;html=1;fillColor=none;" vertex="1" parent="xI8S6_EQLViQU4URrduS-73">
          <mxGeometry x="220" width="70" height="20" as="geometry" />
        </mxCell>
        <mxCell id="xI8S6_EQLViQU4URrduS-79" value="eq(n_op=1)" style="rounded=1;whiteSpace=wrap;html=1;fillColor=none;" vertex="1" parent="xI8S6_EQLViQU4URrduS-73">
          <mxGeometry width="70" height="20" as="geometry" />
        </mxCell>
        <mxCell id="xI8S6_EQLViQU4URrduS-88" value="" style="group" vertex="1" connectable="0" parent="1">
          <mxGeometry x="10" y="350" width="320" height="20" as="geometry" />
        </mxCell>
        <mxCell id="xI8S6_EQLViQU4URrduS-89" value="" style="endArrow=classic;html=1;rounded=0;entryX=0;entryY=0.064;entryDx=0;entryDy=0;entryPerimeter=0;" edge="1" parent="xI8S6_EQLViQU4URrduS-88">
          <mxGeometry width="50" height="50" relative="1" as="geometry">
            <mxPoint x="290" y="9.900000000000006" as="sourcePoint" />
            <mxPoint x="320" y="9.899999999999977" as="targetPoint" />
          </mxGeometry>
        </mxCell>
        <mxCell id="xI8S6_EQLViQU4URrduS-90" value="" style="endArrow=none;html=1;rounded=0;" edge="1" parent="xI8S6_EQLViQU4URrduS-88">
          <mxGeometry width="50" height="50" relative="1" as="geometry">
            <mxPoint x="80" y="9.900000000000006" as="sourcePoint" />
            <mxPoint x="69.99871794871794" y="9.900000000000006" as="targetPoint" />
          </mxGeometry>
        </mxCell>
        <mxCell id="xI8S6_EQLViQU4URrduS-91" value="eq(n_op=0)" style="rounded=1;whiteSpace=wrap;html=1;fillColor=none;" vertex="1" parent="xI8S6_EQLViQU4URrduS-88">
          <mxGeometry width="70" height="20" as="geometry" />
        </mxCell>
        <mxCell id="xI8S6_EQLViQU4URrduS-92" style="edgeStyle=orthogonalEdgeStyle;rounded=0;orthogonalLoop=1;jettySize=auto;html=1;exitX=1;exitY=0.5;exitDx=0;exitDy=0;entryX=0;entryY=0.5;entryDx=0;entryDy=0;endArrow=none;endFill=0;" edge="1" parent="xI8S6_EQLViQU4URrduS-88" source="xI8S6_EQLViQU4URrduS-93" target="xI8S6_EQLViQU4URrduS-95">
          <mxGeometry relative="1" as="geometry" />
        </mxCell>
        <mxCell id="xI8S6_EQLViQU4URrduS-93" value="+,-,*,/" style="rounded=1;whiteSpace=wrap;html=1;fillColor=none;" vertex="1" parent="xI8S6_EQLViQU4URrduS-88">
          <mxGeometry x="80" width="40" height="20" as="geometry" />
        </mxCell>
        <mxCell id="xI8S6_EQLViQU4URrduS-94" style="edgeStyle=orthogonalEdgeStyle;rounded=0;orthogonalLoop=1;jettySize=auto;html=1;exitX=1;exitY=0.5;exitDx=0;exitDy=0;entryX=0;entryY=0.5;entryDx=0;entryDy=0;" edge="1" parent="xI8S6_EQLViQU4URrduS-88" source="xI8S6_EQLViQU4URrduS-95" target="xI8S6_EQLViQU4URrduS-96">
          <mxGeometry relative="1" as="geometry" />
        </mxCell>
        <mxCell id="xI8S6_EQLViQU4URrduS-95" value="eq(n_op=0)" style="rounded=1;whiteSpace=wrap;html=1;fillColor=none;" vertex="1" parent="xI8S6_EQLViQU4URrduS-88">
          <mxGeometry x="130" width="70" height="20" as="geometry" />
        </mxCell>
        <mxCell id="xI8S6_EQLViQU4URrduS-96" value="eq(n_op=1)" style="rounded=1;whiteSpace=wrap;html=1;fillColor=none;" vertex="1" parent="xI8S6_EQLViQU4URrduS-88">
          <mxGeometry x="220" width="70" height="20" as="geometry" />
        </mxCell>
        <mxCell id="xI8S6_EQLViQU4URrduS-97" value="" style="group" vertex="1" connectable="0" parent="1">
          <mxGeometry x="10" y="380" width="320" height="20" as="geometry" />
        </mxCell>
        <mxCell id="xI8S6_EQLViQU4URrduS-98" value="" style="endArrow=classic;html=1;rounded=0;entryX=0;entryY=0.064;entryDx=0;entryDy=0;entryPerimeter=0;" edge="1" parent="xI8S6_EQLViQU4URrduS-97">
          <mxGeometry width="50" height="50" relative="1" as="geometry">
            <mxPoint x="290" y="9.900000000000006" as="sourcePoint" />
            <mxPoint x="320" y="9.899999999999977" as="targetPoint" />
          </mxGeometry>
        </mxCell>
        <mxCell id="xI8S6_EQLViQU4URrduS-99" value="" style="endArrow=none;html=1;rounded=0;" edge="1" parent="xI8S6_EQLViQU4URrduS-97">
          <mxGeometry width="50" height="50" relative="1" as="geometry">
            <mxPoint x="80" y="9.900000000000006" as="sourcePoint" />
            <mxPoint x="69.99871794871794" y="9.900000000000006" as="targetPoint" />
          </mxGeometry>
        </mxCell>
        <mxCell id="xI8S6_EQLViQU4URrduS-100" value="eq(n_op=0)" style="rounded=1;whiteSpace=wrap;html=1;fillColor=none;" vertex="1" parent="xI8S6_EQLViQU4URrduS-97">
          <mxGeometry width="70" height="20" as="geometry" />
        </mxCell>
        <mxCell id="xI8S6_EQLViQU4URrduS-101" style="edgeStyle=orthogonalEdgeStyle;rounded=0;orthogonalLoop=1;jettySize=auto;html=1;exitX=1;exitY=0.5;exitDx=0;exitDy=0;entryX=0;entryY=0.5;entryDx=0;entryDy=0;endArrow=none;endFill=0;" edge="1" parent="xI8S6_EQLViQU4URrduS-97" source="xI8S6_EQLViQU4URrduS-102" target="xI8S6_EQLViQU4URrduS-104">
          <mxGeometry relative="1" as="geometry" />
        </mxCell>
        <mxCell id="xI8S6_EQLViQU4URrduS-102" value="+,-,*,/" style="rounded=1;whiteSpace=wrap;html=1;fillColor=none;" vertex="1" parent="xI8S6_EQLViQU4URrduS-97">
          <mxGeometry x="80" width="40" height="20" as="geometry" />
        </mxCell>
        <mxCell id="xI8S6_EQLViQU4URrduS-103" style="edgeStyle=orthogonalEdgeStyle;rounded=0;orthogonalLoop=1;jettySize=auto;html=1;exitX=1;exitY=0.5;exitDx=0;exitDy=0;entryX=0;entryY=0.5;entryDx=0;entryDy=0;" edge="1" parent="xI8S6_EQLViQU4URrduS-97" source="xI8S6_EQLViQU4URrduS-104" target="xI8S6_EQLViQU4URrduS-105">
          <mxGeometry relative="1" as="geometry" />
        </mxCell>
        <mxCell id="xI8S6_EQLViQU4URrduS-104" value="eq(n_op=0)" style="rounded=1;whiteSpace=wrap;html=1;fillColor=none;" vertex="1" parent="xI8S6_EQLViQU4URrduS-97">
          <mxGeometry x="130" width="70" height="20" as="geometry" />
        </mxCell>
        <mxCell id="xI8S6_EQLViQU4URrduS-105" value="eq(n_op=1)" style="rounded=1;whiteSpace=wrap;html=1;fillColor=none;" vertex="1" parent="xI8S6_EQLViQU4URrduS-97">
          <mxGeometry x="220" width="70" height="20" as="geometry" />
        </mxCell>
        <mxCell id="xI8S6_EQLViQU4URrduS-106" value="" style="group" vertex="1" connectable="0" parent="1">
          <mxGeometry x="10" y="440" width="320" height="20" as="geometry" />
        </mxCell>
        <mxCell id="xI8S6_EQLViQU4URrduS-107" value="" style="endArrow=classic;html=1;rounded=0;entryX=0;entryY=0.064;entryDx=0;entryDy=0;entryPerimeter=0;" edge="1" parent="xI8S6_EQLViQU4URrduS-106">
          <mxGeometry width="50" height="50" relative="1" as="geometry">
            <mxPoint x="290" y="10" as="sourcePoint" />
            <mxPoint x="320" y="9.859999999999985" as="targetPoint" />
          </mxGeometry>
        </mxCell>
        <mxCell id="xI8S6_EQLViQU4URrduS-108" value="" style="endArrow=none;html=1;rounded=0;" edge="1" parent="xI8S6_EQLViQU4URrduS-106">
          <mxGeometry width="50" height="50" relative="1" as="geometry">
            <mxPoint x="80" y="9.890000000000015" as="sourcePoint" />
            <mxPoint x="69.99871794871794" y="9.890000000000015" as="targetPoint" />
          </mxGeometry>
        </mxCell>
        <mxCell id="xI8S6_EQLViQU4URrduS-109" value="abs,exp,sin..." style="rounded=1;whiteSpace=wrap;html=1;fillColor=none;" vertex="1" parent="xI8S6_EQLViQU4URrduS-106">
          <mxGeometry x="80" width="120" height="20" as="geometry" />
        </mxCell>
        <mxCell id="xI8S6_EQLViQU4URrduS-110" style="edgeStyle=orthogonalEdgeStyle;rounded=0;orthogonalLoop=1;jettySize=auto;html=1;exitX=1;exitY=0.5;exitDx=0;exitDy=0;entryX=0;entryY=0.5;entryDx=0;entryDy=0;" edge="1" parent="xI8S6_EQLViQU4URrduS-106">
          <mxGeometry relative="1" as="geometry">
            <mxPoint x="200" y="9.900000000000006" as="sourcePoint" />
            <mxPoint x="220" y="9.900000000000063" as="targetPoint" />
          </mxGeometry>
        </mxCell>
        <mxCell id="xI8S6_EQLViQU4URrduS-111" value="eq(n_op=1)" style="rounded=1;whiteSpace=wrap;html=1;fillColor=none;" vertex="1" parent="xI8S6_EQLViQU4URrduS-106">
          <mxGeometry x="220" width="70" height="20" as="geometry" />
        </mxCell>
        <mxCell id="xI8S6_EQLViQU4URrduS-112" value="eq(n_op=1)" style="rounded=1;whiteSpace=wrap;html=1;fillColor=none;" vertex="1" parent="xI8S6_EQLViQU4URrduS-106">
          <mxGeometry width="70" height="20" as="geometry" />
        </mxCell>
        <mxCell id="xI8S6_EQLViQU4URrduS-113" value="" style="group" vertex="1" connectable="0" parent="1">
          <mxGeometry x="10" y="410" width="320" height="20" as="geometry" />
        </mxCell>
        <mxCell id="xI8S6_EQLViQU4URrduS-114" value="" style="endArrow=classic;html=1;rounded=0;entryX=0;entryY=0.064;entryDx=0;entryDy=0;entryPerimeter=0;" edge="1" parent="xI8S6_EQLViQU4URrduS-113">
          <mxGeometry width="50" height="50" relative="1" as="geometry">
            <mxPoint x="290" y="9.900000000000006" as="sourcePoint" />
            <mxPoint x="320" y="9.899999999999977" as="targetPoint" />
          </mxGeometry>
        </mxCell>
        <mxCell id="xI8S6_EQLViQU4URrduS-115" value="" style="endArrow=none;html=1;rounded=0;" edge="1" parent="xI8S6_EQLViQU4URrduS-113">
          <mxGeometry width="50" height="50" relative="1" as="geometry">
            <mxPoint x="80" y="9.900000000000006" as="sourcePoint" />
            <mxPoint x="69.99871794871794" y="9.900000000000006" as="targetPoint" />
          </mxGeometry>
        </mxCell>
        <mxCell id="xI8S6_EQLViQU4URrduS-116" value="eq(n_op=0)" style="rounded=1;whiteSpace=wrap;html=1;fillColor=none;" vertex="1" parent="xI8S6_EQLViQU4URrduS-113">
          <mxGeometry width="70" height="20" as="geometry" />
        </mxCell>
        <mxCell id="xI8S6_EQLViQU4URrduS-117" style="edgeStyle=orthogonalEdgeStyle;rounded=0;orthogonalLoop=1;jettySize=auto;html=1;exitX=1;exitY=0.5;exitDx=0;exitDy=0;entryX=0;entryY=0.5;entryDx=0;entryDy=0;endArrow=none;endFill=0;" edge="1" parent="xI8S6_EQLViQU4URrduS-113" source="xI8S6_EQLViQU4URrduS-118" target="xI8S6_EQLViQU4URrduS-120">
          <mxGeometry relative="1" as="geometry" />
        </mxCell>
        <mxCell id="xI8S6_EQLViQU4URrduS-118" value="+,-,*,/" style="rounded=1;whiteSpace=wrap;html=1;fillColor=none;" vertex="1" parent="xI8S6_EQLViQU4URrduS-113">
          <mxGeometry x="80" width="40" height="20" as="geometry" />
        </mxCell>
        <mxCell id="xI8S6_EQLViQU4URrduS-119" style="edgeStyle=orthogonalEdgeStyle;rounded=0;orthogonalLoop=1;jettySize=auto;html=1;exitX=1;exitY=0.5;exitDx=0;exitDy=0;entryX=0;entryY=0.5;entryDx=0;entryDy=0;" edge="1" parent="xI8S6_EQLViQU4URrduS-113" source="xI8S6_EQLViQU4URrduS-120" target="xI8S6_EQLViQU4URrduS-121">
          <mxGeometry relative="1" as="geometry" />
        </mxCell>
        <mxCell id="xI8S6_EQLViQU4URrduS-120" value="eq(n_op=0)" style="rounded=1;whiteSpace=wrap;html=1;fillColor=none;" vertex="1" parent="xI8S6_EQLViQU4URrduS-113">
          <mxGeometry x="130" width="70" height="20" as="geometry" />
        </mxCell>
        <mxCell id="xI8S6_EQLViQU4URrduS-121" value="eq(n_op=1)" style="rounded=1;whiteSpace=wrap;html=1;fillColor=none;" vertex="1" parent="xI8S6_EQLViQU4URrduS-113">
          <mxGeometry x="220" width="70" height="20" as="geometry" />
        </mxCell>
      </root>
    </mxGraphModel>
  </diagram>
</mxfile>
